<svg xmlns="http://www.w3.org/2000/svg" viewBox="0 0 36 36" data-supported-dps="24x24" width="24" height="24">
  <path d="M 18,0 C 8.1,0 0,8.1450733 0,18.100163 0,27.049687 6.4999999,34.491653 15,36 l 0.105468,-0.08543 C 15.070361,35.907729 15.035107,35.906925 15,35.899836 V 23.128968 H 10.5 V 18.100163 H 15 v -4.021276 c 0,-4.525041 2.899023,-7.0409163 6.999024,-7.0409163 1.299999,0 2.701953,0.2024873 4.001952,0.4036006 V 12.066775 H 23.701171 C 21.501173,12.066775 21,13.171914 21,14.579705 v 3.520458 h 4.798829 l -0.799805,5.028805 H 21 v 12.770867 c -0.03511,0.007 -0.07036,0.0079 -0.105468,0.01473 L 21,36 C 29.500001,34.491652 36,27.049687 36,18.100163 36,8.1450733 27.9,0 18,0 Z"></path>
</svg>