<svg xmlns="http://www.w3.org/2000/svg" viewBox="0 0 24 24" data-supported-dps="24x24" width="24" height="24" focusable="false">
  <path
     fill="#0A66C2"
     d="M20.5 2h-17A1.5 1.5 0 002 3.5v17A1.5 1.5 0 003.5 22h17a1.5 1.5 0 001.5-1.5v-17A1.5 1.5 0 0020.5 2zM8 19H5v-9h3zM6.5 8.25A1.75 1.75 0 118.3 6.5a1.78 1.78 0 01-1.8 1.75zM19 19h-3v-4.74c0-1.42-.6-1.93-1.38-1.93A1.74 1.74 0 0013 14.19a.66.66 0 000 .14V19h-3v-9h2.9v1.3a3.11 3.11 0 012.7-1.4c1.55 0 3.36.86 3.36 3.66z"/>
  <path
     fill="#ffffff"
     d="M 5.0285714,14.497959 V 10.008163 H 6.5142857 8 v 4.489796 4.489796 H 6.5142857 5.0285714 Z"/>
  <path
     fill="#ffffff"
     d="M 6.2943146,8.2122808 C 5.6347275,8.0964953 5.0868688,7.624339 4.8963393,7.0074762 4.8213992,6.7648485 4.8074307,6.3635274 4.8650022,6.1071505 4.954332,5.709348 5.2648884,5.2704152 5.6167791,5.0446076 6.1728966,4.687748 6.918017,4.6853561 7.4635798,5.0386793 8.0318315,5.4066965 8.3477851,6.0606812 8.2631915,6.6937747 8.1708336,7.3849752 7.6295489,8.0047226 6.9705649,8.1737757 6.7710656,8.2249544 6.465594,8.2423478 6.2943146,8.2122808 Z"/>
  <path
     fill="#ffffff"
     d="m 10.02449,14.497959 v -4.489796 h 1.436058 1.436059 l 0.0088,0.658911 0.0088,0.65891 0.09337,-0.14116 c 0.133288,-0.201513 0.493776,-0.552796 0.736268,-0.717469 0.288478,-0.195902 0.684536,-0.373655 1.031588,-0.462983 0.387297,-0.099686 1.15665,-0.1073148 1.583674,-0.015703 1.244754,0.267042 2.08795,1.050464 2.41488,2.243689 0.155535,0.567668 0.163161,0.724246 0.186278,3.824785 l 0.02185,2.930612 h -1.490019 -1.49002 l -0.01,-2.702041 c -0.009,-2.452049 -0.0152,-2.719647 -0.06663,-2.892343 -0.144458,-0.485019 -0.359173,-0.774363 -0.698658,-0.941491 -0.17911,-0.08817 -0.261076,-0.107841 -0.49624,-0.119063 -0.24068,-0.01148 -0.319208,-8.43e-4 -0.53937,0.07309 -0.450757,0.151365 -0.810161,0.453703 -1.01111,0.850563 -0.187527,0.370352 -0.183466,0.301289 -0.183886,3.127205 l -3.88e-4,2.604082 h -1.48559 -1.485714 z"/>
  <path
     fill="#ffffff"
     d="M 5.0285714,14.497959 V 10.008163 H 6.5142857 8 v 4.489796 4.489796 H 6.5142857 5.0285714 Z"/>
  <path
     fill="#ffffff"
     d="m 10.02449,14.497959 v -4.489796 h 1.436058 1.436059 l 0.0088,0.65312 0.0088,0.653121 L 13.06923,11.105 c 0.375861,-0.50797 1.021337,-0.92433 1.70628,-1.100628 0.383841,-0.098796 1.156649,-0.1077683 1.577874,-0.018318 0.683901,0.145231 1.178363,0.404204 1.625524,0.851365 0.456552,0.456552 0.703156,0.934838 0.864417,1.67653 0.06074,0.279343 0.07259,0.480016 0.09599,1.624827 0.01468,0.718367 0.02791,2.103265 0.02941,3.077551 l 0.0027,1.771428 h -1.484304 -1.484304 l -0.01129,-2.702041 c -0.01037,-2.48286 -0.01603,-2.717933 -0.06979,-2.897959 -0.143243,-0.479663 -0.359044,-0.770567 -0.693926,-0.935429 -0.70317,-0.34617 -1.685107,0.05358 -2.057125,0.83747 -0.05966,0.125714 -0.123392,0.30772 -0.141624,0.404457 -0.02065,0.109576 -0.03315,1.140563 -0.03315,2.734694 v 2.558808 H 11.510204 10.02449 Z"/>
  <path
     fill="#ffffff"
     d="M 6.2943146,8.2120176 C 5.7861603,8.1236797 5.37676,7.8527607 5.0892936,7.4146002 4.9171037,7.152146 4.8305984,6.8581738 4.8294738,6.5316516 4.8278349,6.0558052 4.9673106,5.6787343 5.2661687,5.351053 5.6134887,4.9702358 6.033141,4.7806382 6.5345035,4.7780235 7.0391287,4.7753917 7.4342673,4.9423468 7.7862132,5.3068994 8.0337107,5.5632622 8.1721682,5.8284261 8.2477094,6.1907237 8.3795827,6.8231919 8.0604839,7.5571723 7.4886216,7.9367529 7.1490436,8.1621518 6.6582148,8.2752787 6.2943146,8.2120176 Z"
 />
</svg>